; NON-PLATED HOLES START AT T1
; THROUGH (PLATED) HOLES START AT T100
M48
INCH
T1C0.086614
T100C0.035000
T101C0.039370
T102C0.043307
T103C0.098425
T104C0.023622
%
T1
X022679Y001129
X001324Y012124
X022679Y012129
X000979Y001129
T100
X010324Y011124
X012324Y011124
X016324Y011124
X006324Y011124
T101
X019374Y009124
X008374Y001124
X019324Y012124
X005374Y001124
X011374Y001124
X017374Y001124
X015374Y009124
X012374Y001124
X010374Y001124
X018324Y012124
X018374Y009124
X013374Y009124
X009374Y001124
X020324Y012124
X014374Y001124
X016374Y001124
X008374Y009124
X019374Y001124
X004374Y001124
X006374Y001124
X011374Y009124
X017374Y009124
X012374Y009124
X015374Y001124
X010374Y009124
X007374Y001124
X009374Y009124
X013374Y001124
X018374Y001124
X016374Y009124
X014374Y009124
T102
X004324Y012124
X003324Y012124
T103
X002874Y008624
X002874Y001624
T104
X002447Y003423
X002447Y006825
X004093Y003423
X004093Y006825
T00
M30
