G04 MADE WITH FRITZING*
G04 WWW.FRITZING.ORG*
G04 DOUBLE SIDED*
G04 HOLES PLATED*
G04 CONTOUR ON CENTER OF CONTOUR VECTOR*
%ASAXBY*%
%FSLAX23Y23*%
%MOIN*%
%OFA0B0*%
%SFA1.0B1.0*%
%ADD10C,0.085000*%
%ADD11C,0.093307*%
%ADD12C,0.089370*%
%ADD13C,0.053622*%
%ADD14C,0.076000*%
%ADD15C,0.148425*%
%ADD16C,0.096614*%
%ADD17R,0.093307X0.093307*%
%ADD18R,0.089370X0.089370*%
%ADD19R,0.071024X0.033622*%
%ADD20R,0.049370X0.191101*%
%ADD21R,0.001000X0.001000*%
%LNMASK1*%
G90*
G70*
G54D10*
X632Y1112D03*
X1032Y1112D03*
X1232Y1112D03*
X1632Y1112D03*
G54D11*
X332Y1212D03*
X432Y1212D03*
G54D12*
X1832Y1212D03*
X1932Y1212D03*
X2032Y1212D03*
G54D13*
X409Y342D03*
G54D14*
X1937Y112D03*
X1837Y112D03*
X1737Y112D03*
X1637Y112D03*
X1537Y112D03*
X1437Y112D03*
X1337Y112D03*
X1237Y112D03*
X1137Y112D03*
X1037Y112D03*
X937Y112D03*
X837Y112D03*
X737Y112D03*
X637Y112D03*
X537Y112D03*
G54D13*
X245Y342D03*
G54D14*
X437Y112D03*
X837Y912D03*
X937Y912D03*
X1037Y912D03*
X1137Y912D03*
X1237Y912D03*
X1337Y912D03*
X1437Y912D03*
X1537Y912D03*
X1637Y912D03*
X1737Y912D03*
X1837Y912D03*
X1937Y912D03*
G54D15*
X287Y862D03*
X287Y162D03*
G54D13*
X409Y683D03*
X245Y683D03*
G54D16*
X132Y1212D03*
X98Y113D03*
X2268Y113D03*
X2268Y1213D03*
G54D17*
X332Y1212D03*
G54D18*
X1832Y1212D03*
G54D19*
X1134Y453D03*
X1134Y493D03*
X1134Y532D03*
G54D20*
X657Y679D03*
G54D19*
X1134Y572D03*
G54D20*
X578Y679D03*
G54D21*
X202Y704D02*
X288Y704D01*
X367Y704D02*
X453Y704D01*
X202Y703D02*
X288Y703D01*
X367Y703D02*
X453Y703D01*
X202Y702D02*
X288Y702D01*
X367Y702D02*
X453Y702D01*
X202Y701D02*
X288Y701D01*
X367Y701D02*
X453Y701D01*
X202Y700D02*
X288Y700D01*
X367Y700D02*
X453Y700D01*
X202Y699D02*
X288Y699D01*
X367Y699D02*
X453Y699D01*
X202Y698D02*
X288Y698D01*
X367Y698D02*
X453Y698D01*
X202Y697D02*
X288Y697D01*
X367Y697D02*
X453Y697D01*
X202Y696D02*
X288Y696D01*
X367Y696D02*
X453Y696D01*
X202Y695D02*
X288Y695D01*
X367Y695D02*
X453Y695D01*
X202Y694D02*
X241Y694D01*
X249Y694D02*
X288Y694D01*
X367Y694D02*
X406Y694D01*
X414Y694D02*
X453Y694D01*
X202Y693D02*
X239Y693D01*
X252Y693D02*
X288Y693D01*
X367Y693D02*
X403Y693D01*
X416Y693D02*
X453Y693D01*
X202Y692D02*
X237Y692D01*
X253Y692D02*
X288Y692D01*
X367Y692D02*
X402Y692D01*
X418Y692D02*
X453Y692D01*
X202Y691D02*
X236Y691D01*
X254Y691D02*
X288Y691D01*
X367Y691D02*
X401Y691D01*
X419Y691D02*
X453Y691D01*
X202Y690D02*
X235Y690D01*
X255Y690D02*
X288Y690D01*
X367Y690D02*
X400Y690D01*
X420Y690D02*
X453Y690D01*
X202Y689D02*
X235Y689D01*
X256Y689D02*
X288Y689D01*
X367Y689D02*
X399Y689D01*
X420Y689D02*
X453Y689D01*
X202Y688D02*
X234Y688D01*
X256Y688D02*
X288Y688D01*
X367Y688D02*
X399Y688D01*
X421Y688D02*
X453Y688D01*
X202Y687D02*
X234Y687D01*
X257Y687D02*
X288Y687D01*
X367Y687D02*
X398Y687D01*
X421Y687D02*
X453Y687D01*
X202Y686D02*
X233Y686D01*
X257Y686D02*
X288Y686D01*
X367Y686D02*
X398Y686D01*
X422Y686D02*
X453Y686D01*
X202Y685D02*
X233Y685D01*
X257Y685D02*
X288Y685D01*
X367Y685D02*
X398Y685D01*
X422Y685D02*
X453Y685D01*
X202Y684D02*
X233Y684D01*
X257Y684D02*
X288Y684D01*
X367Y684D02*
X398Y684D01*
X422Y684D02*
X453Y684D01*
X202Y683D02*
X233Y683D01*
X258Y683D02*
X288Y683D01*
X367Y683D02*
X398Y683D01*
X422Y683D02*
X453Y683D01*
X202Y682D02*
X233Y682D01*
X257Y682D02*
X288Y682D01*
X367Y682D02*
X398Y682D01*
X422Y682D02*
X453Y682D01*
X202Y681D02*
X233Y681D01*
X257Y681D02*
X288Y681D01*
X367Y681D02*
X398Y681D01*
X422Y681D02*
X453Y681D01*
X202Y680D02*
X233Y680D01*
X257Y680D02*
X288Y680D01*
X367Y680D02*
X398Y680D01*
X422Y680D02*
X453Y680D01*
X202Y679D02*
X233Y679D01*
X257Y679D02*
X288Y679D01*
X367Y679D02*
X398Y679D01*
X422Y679D02*
X453Y679D01*
X202Y678D02*
X234Y678D01*
X257Y678D02*
X288Y678D01*
X367Y678D02*
X398Y678D01*
X421Y678D02*
X453Y678D01*
X202Y677D02*
X234Y677D01*
X256Y677D02*
X288Y677D01*
X367Y677D02*
X399Y677D01*
X421Y677D02*
X453Y677D01*
X202Y676D02*
X235Y676D01*
X256Y676D02*
X288Y676D01*
X367Y676D02*
X400Y676D01*
X420Y676D02*
X453Y676D01*
X202Y675D02*
X236Y675D01*
X255Y675D02*
X288Y675D01*
X367Y675D02*
X400Y675D01*
X419Y675D02*
X453Y675D01*
X202Y674D02*
X237Y674D01*
X254Y674D02*
X288Y674D01*
X367Y674D02*
X401Y674D01*
X418Y674D02*
X453Y674D01*
X202Y673D02*
X238Y673D01*
X252Y673D02*
X288Y673D01*
X367Y673D02*
X403Y673D01*
X417Y673D02*
X453Y673D01*
X202Y672D02*
X240Y672D01*
X251Y672D02*
X288Y672D01*
X367Y672D02*
X405Y672D01*
X415Y672D02*
X453Y672D01*
X202Y671D02*
X288Y671D01*
X367Y671D02*
X453Y671D01*
X202Y670D02*
X288Y670D01*
X367Y670D02*
X453Y670D01*
X202Y669D02*
X288Y669D01*
X367Y669D02*
X453Y669D01*
X202Y668D02*
X288Y668D01*
X367Y668D02*
X453Y668D01*
X202Y667D02*
X288Y667D01*
X367Y667D02*
X453Y667D01*
X202Y666D02*
X288Y666D01*
X367Y666D02*
X453Y666D01*
X202Y665D02*
X288Y665D01*
X367Y665D02*
X453Y665D01*
X202Y664D02*
X288Y664D01*
X367Y664D02*
X453Y664D01*
X202Y663D02*
X288Y663D01*
X367Y663D02*
X453Y663D01*
X202Y662D02*
X288Y662D01*
X367Y662D02*
X453Y662D01*
X203Y661D02*
X288Y661D01*
X367Y661D02*
X453Y661D01*
X202Y364D02*
X288Y364D01*
X367Y364D02*
X453Y364D01*
X202Y363D02*
X288Y363D01*
X367Y363D02*
X453Y363D01*
X202Y362D02*
X288Y362D01*
X367Y362D02*
X453Y362D01*
X202Y361D02*
X288Y361D01*
X367Y361D02*
X453Y361D01*
X202Y360D02*
X288Y360D01*
X367Y360D02*
X453Y360D01*
X202Y359D02*
X288Y359D01*
X367Y359D02*
X453Y359D01*
X202Y358D02*
X288Y358D01*
X367Y358D02*
X453Y358D01*
X202Y357D02*
X288Y357D01*
X367Y357D02*
X453Y357D01*
X202Y356D02*
X288Y356D01*
X367Y356D02*
X453Y356D01*
X202Y355D02*
X288Y355D01*
X367Y355D02*
X453Y355D01*
X202Y354D02*
X241Y354D01*
X249Y354D02*
X288Y354D01*
X367Y354D02*
X406Y354D01*
X414Y354D02*
X453Y354D01*
X202Y353D02*
X239Y353D01*
X252Y353D02*
X288Y353D01*
X367Y353D02*
X403Y353D01*
X416Y353D02*
X453Y353D01*
X202Y352D02*
X237Y352D01*
X253Y352D02*
X288Y352D01*
X367Y352D02*
X402Y352D01*
X418Y352D02*
X453Y352D01*
X202Y351D02*
X236Y351D01*
X254Y351D02*
X288Y351D01*
X367Y351D02*
X401Y351D01*
X419Y351D02*
X453Y351D01*
X202Y350D02*
X235Y350D01*
X255Y350D02*
X288Y350D01*
X367Y350D02*
X400Y350D01*
X420Y350D02*
X453Y350D01*
X202Y349D02*
X235Y349D01*
X256Y349D02*
X288Y349D01*
X367Y349D02*
X399Y349D01*
X420Y349D02*
X453Y349D01*
X202Y348D02*
X234Y348D01*
X256Y348D02*
X288Y348D01*
X367Y348D02*
X399Y348D01*
X421Y348D02*
X453Y348D01*
X202Y347D02*
X234Y347D01*
X257Y347D02*
X288Y347D01*
X367Y347D02*
X398Y347D01*
X421Y347D02*
X453Y347D01*
X202Y346D02*
X233Y346D01*
X257Y346D02*
X288Y346D01*
X367Y346D02*
X398Y346D01*
X422Y346D02*
X453Y346D01*
X202Y345D02*
X233Y345D01*
X257Y345D02*
X288Y345D01*
X367Y345D02*
X398Y345D01*
X422Y345D02*
X453Y345D01*
X202Y344D02*
X233Y344D01*
X257Y344D02*
X288Y344D01*
X367Y344D02*
X398Y344D01*
X422Y344D02*
X453Y344D01*
X202Y343D02*
X233Y343D01*
X258Y343D02*
X288Y343D01*
X367Y343D02*
X398Y343D01*
X422Y343D02*
X453Y343D01*
X202Y342D02*
X233Y342D01*
X257Y342D02*
X288Y342D01*
X367Y342D02*
X398Y342D01*
X422Y342D02*
X453Y342D01*
X202Y341D02*
X233Y341D01*
X257Y341D02*
X288Y341D01*
X367Y341D02*
X398Y341D01*
X422Y341D02*
X453Y341D01*
X202Y340D02*
X233Y340D01*
X257Y340D02*
X288Y340D01*
X367Y340D02*
X398Y340D01*
X422Y340D02*
X453Y340D01*
X202Y339D02*
X233Y339D01*
X257Y339D02*
X288Y339D01*
X367Y339D02*
X398Y339D01*
X422Y339D02*
X453Y339D01*
X202Y338D02*
X234Y338D01*
X257Y338D02*
X288Y338D01*
X367Y338D02*
X398Y338D01*
X421Y338D02*
X453Y338D01*
X202Y337D02*
X234Y337D01*
X256Y337D02*
X288Y337D01*
X367Y337D02*
X399Y337D01*
X421Y337D02*
X453Y337D01*
X202Y336D02*
X235Y336D01*
X256Y336D02*
X288Y336D01*
X367Y336D02*
X400Y336D01*
X420Y336D02*
X453Y336D01*
X202Y335D02*
X236Y335D01*
X255Y335D02*
X288Y335D01*
X367Y335D02*
X400Y335D01*
X419Y335D02*
X453Y335D01*
X202Y334D02*
X237Y334D01*
X254Y334D02*
X288Y334D01*
X367Y334D02*
X401Y334D01*
X418Y334D02*
X453Y334D01*
X202Y333D02*
X238Y333D01*
X252Y333D02*
X288Y333D01*
X367Y333D02*
X403Y333D01*
X417Y333D02*
X453Y333D01*
X202Y332D02*
X240Y332D01*
X251Y332D02*
X288Y332D01*
X367Y332D02*
X405Y332D01*
X415Y332D02*
X453Y332D01*
X202Y331D02*
X288Y331D01*
X367Y331D02*
X453Y331D01*
X202Y330D02*
X288Y330D01*
X367Y330D02*
X453Y330D01*
X202Y329D02*
X288Y329D01*
X367Y329D02*
X453Y329D01*
X202Y328D02*
X288Y328D01*
X367Y328D02*
X453Y328D01*
X202Y327D02*
X288Y327D01*
X367Y327D02*
X453Y327D01*
X202Y326D02*
X288Y326D01*
X367Y326D02*
X453Y326D01*
X202Y325D02*
X288Y325D01*
X367Y325D02*
X453Y325D01*
X202Y324D02*
X288Y324D01*
X367Y324D02*
X453Y324D01*
X202Y323D02*
X288Y323D01*
X367Y323D02*
X453Y323D01*
X202Y322D02*
X288Y322D01*
X367Y322D02*
X453Y322D01*
X202Y321D02*
X288Y321D01*
X367Y321D02*
X453Y321D01*
D02*
G04 End of Mask1*
M02*