G04 MADE WITH FRITZING*
G04 WWW.FRITZING.ORG*
G04 DOUBLE SIDED*
G04 HOLES PLATED*
G04 CONTOUR ON CENTER OF CONTOUR VECTOR*
%ASAXBY*%
%FSLAX23Y23*%
%MOIN*%
%OFA0B0*%
%SFA1.0B1.0*%
%ADD10C,0.075000*%
%ADD11C,0.083307*%
%ADD12C,0.079370*%
%ADD13C,0.043622*%
%ADD14C,0.066000*%
%ADD15C,0.138425*%
%ADD16R,0.083307X0.083307*%
%ADD17R,0.079370X0.079370*%
%ADD18R,0.061024X0.023622*%
%ADD19R,0.039370X0.181101*%
%ADD20C,0.024000*%
%ADD21R,0.001000X0.001000*%
%LNCOPPER1*%
G90*
G70*
G54D10*
X632Y1112D03*
X1032Y1112D03*
X1232Y1112D03*
X1632Y1112D03*
G54D11*
X332Y1212D03*
X432Y1212D03*
G54D12*
X1832Y1212D03*
X1932Y1212D03*
X2032Y1212D03*
G54D13*
X409Y342D03*
G54D14*
X1937Y112D03*
X1837Y112D03*
X1737Y112D03*
X1637Y112D03*
X1537Y112D03*
X1437Y112D03*
X1337Y112D03*
X1237Y112D03*
X1137Y112D03*
X1037Y112D03*
X937Y112D03*
X837Y112D03*
X737Y112D03*
X637Y112D03*
X537Y112D03*
G54D13*
X245Y342D03*
G54D14*
X437Y112D03*
X837Y912D03*
X937Y912D03*
X1037Y912D03*
X1137Y912D03*
X1237Y912D03*
X1337Y912D03*
X1437Y912D03*
X1537Y912D03*
X1637Y912D03*
X1737Y912D03*
X1837Y912D03*
X1937Y912D03*
G54D15*
X287Y862D03*
X287Y162D03*
G54D13*
X409Y683D03*
X245Y683D03*
G54D16*
X332Y1212D03*
G54D17*
X1832Y1212D03*
G54D18*
X1134Y453D03*
X1134Y493D03*
X1134Y532D03*
G54D19*
X657Y679D03*
G54D18*
X1134Y572D03*
G54D19*
X578Y679D03*
G54D20*
X732Y612D02*
X737Y132D01*
D02*
X344Y1194D02*
X732Y612D01*
D02*
X1332Y213D02*
X1336Y132D01*
D02*
X2031Y1193D02*
X2004Y747D01*
D02*
X2004Y747D02*
X1332Y213D01*
D02*
X1926Y1194D02*
X1890Y1093D01*
D02*
X1890Y1093D02*
X1650Y1111D01*
D02*
X1334Y1013D02*
X1571Y1010D01*
D02*
X1571Y1010D02*
X1633Y912D01*
D02*
X1228Y1103D02*
X1334Y1013D01*
D02*
X1228Y1103D02*
X1228Y1103D01*
D02*
X1633Y912D02*
X1633Y912D01*
D02*
X1131Y1013D02*
X1223Y926D01*
D02*
X958Y1015D02*
X1131Y1013D01*
D02*
X646Y1101D02*
X726Y1035D01*
D02*
X726Y1035D02*
X958Y1015D01*
G54D21*
X207Y699D02*
X240Y699D01*
X250Y699D02*
X283Y699D01*
X372Y699D02*
X405Y699D01*
X415Y699D02*
X448Y699D01*
X207Y698D02*
X238Y698D01*
X253Y698D02*
X283Y698D01*
X372Y698D02*
X402Y698D01*
X417Y698D02*
X448Y698D01*
X207Y697D02*
X236Y697D01*
X255Y697D02*
X283Y697D01*
X372Y697D02*
X400Y697D01*
X419Y697D02*
X448Y697D01*
X207Y696D02*
X234Y696D01*
X256Y696D02*
X283Y696D01*
X372Y696D02*
X399Y696D01*
X421Y696D02*
X448Y696D01*
X207Y695D02*
X233Y695D01*
X257Y695D02*
X283Y695D01*
X372Y695D02*
X398Y695D01*
X422Y695D02*
X448Y695D01*
X207Y694D02*
X232Y694D01*
X258Y694D02*
X283Y694D01*
X372Y694D02*
X397Y694D01*
X423Y694D02*
X448Y694D01*
X207Y693D02*
X231Y693D01*
X259Y693D02*
X283Y693D01*
X372Y693D02*
X396Y693D01*
X424Y693D02*
X448Y693D01*
X207Y692D02*
X231Y692D01*
X260Y692D02*
X283Y692D01*
X372Y692D02*
X395Y692D01*
X424Y692D02*
X448Y692D01*
X207Y691D02*
X230Y691D01*
X260Y691D02*
X283Y691D01*
X372Y691D02*
X395Y691D01*
X425Y691D02*
X448Y691D01*
X207Y690D02*
X230Y690D01*
X261Y690D02*
X283Y690D01*
X372Y690D02*
X394Y690D01*
X425Y690D02*
X448Y690D01*
X207Y689D02*
X229Y689D01*
X261Y689D02*
X283Y689D01*
X372Y689D02*
X394Y689D01*
X426Y689D02*
X448Y689D01*
X207Y688D02*
X229Y688D01*
X262Y688D02*
X283Y688D01*
X372Y688D02*
X393Y688D01*
X426Y688D02*
X448Y688D01*
X207Y687D02*
X228Y687D01*
X262Y687D02*
X283Y687D01*
X372Y687D02*
X393Y687D01*
X427Y687D02*
X448Y687D01*
X207Y686D02*
X228Y686D01*
X262Y686D02*
X283Y686D01*
X372Y686D02*
X393Y686D01*
X427Y686D02*
X448Y686D01*
X207Y685D02*
X228Y685D01*
X262Y685D02*
X283Y685D01*
X372Y685D02*
X393Y685D01*
X427Y685D02*
X448Y685D01*
X207Y684D02*
X228Y684D01*
X262Y684D02*
X283Y684D01*
X372Y684D02*
X393Y684D01*
X427Y684D02*
X448Y684D01*
X207Y683D02*
X228Y683D01*
X263Y683D02*
X283Y683D01*
X372Y683D02*
X393Y683D01*
X427Y683D02*
X448Y683D01*
X207Y682D02*
X228Y682D01*
X263Y682D02*
X283Y682D01*
X372Y682D02*
X393Y682D01*
X427Y682D02*
X448Y682D01*
X207Y681D02*
X228Y681D01*
X262Y681D02*
X283Y681D01*
X372Y681D02*
X393Y681D01*
X427Y681D02*
X448Y681D01*
X207Y680D02*
X228Y680D01*
X262Y680D02*
X283Y680D01*
X372Y680D02*
X393Y680D01*
X427Y680D02*
X448Y680D01*
X207Y679D02*
X228Y679D01*
X262Y679D02*
X283Y679D01*
X372Y679D02*
X393Y679D01*
X427Y679D02*
X448Y679D01*
X207Y678D02*
X229Y678D01*
X262Y678D02*
X283Y678D01*
X372Y678D02*
X393Y678D01*
X426Y678D02*
X448Y678D01*
X207Y677D02*
X229Y677D01*
X262Y677D02*
X283Y677D01*
X372Y677D02*
X394Y677D01*
X426Y677D02*
X448Y677D01*
X207Y676D02*
X229Y676D01*
X261Y676D02*
X283Y676D01*
X372Y676D02*
X394Y676D01*
X426Y676D02*
X448Y676D01*
X207Y675D02*
X230Y675D01*
X261Y675D02*
X283Y675D01*
X372Y675D02*
X394Y675D01*
X425Y675D02*
X448Y675D01*
X207Y674D02*
X230Y674D01*
X260Y674D02*
X283Y674D01*
X372Y674D02*
X395Y674D01*
X425Y674D02*
X448Y674D01*
X207Y673D02*
X231Y673D01*
X259Y673D02*
X283Y673D01*
X372Y673D02*
X396Y673D01*
X424Y673D02*
X448Y673D01*
X207Y672D02*
X232Y672D01*
X259Y672D02*
X283Y672D01*
X372Y672D02*
X396Y672D01*
X423Y672D02*
X448Y672D01*
X207Y671D02*
X233Y671D01*
X258Y671D02*
X283Y671D01*
X372Y671D02*
X397Y671D01*
X422Y671D02*
X448Y671D01*
X207Y670D02*
X234Y670D01*
X257Y670D02*
X283Y670D01*
X372Y670D02*
X398Y670D01*
X421Y670D02*
X448Y670D01*
X207Y669D02*
X235Y669D01*
X255Y669D02*
X283Y669D01*
X372Y669D02*
X400Y669D01*
X420Y669D02*
X448Y669D01*
X207Y668D02*
X237Y668D01*
X254Y668D02*
X283Y668D01*
X372Y668D02*
X401Y668D01*
X418Y668D02*
X448Y668D01*
X207Y667D02*
X239Y667D01*
X252Y667D02*
X283Y667D01*
X372Y667D02*
X403Y667D01*
X416Y667D02*
X448Y667D01*
X208Y666D02*
X241Y666D01*
X250Y666D02*
X283Y666D01*
X372Y666D02*
X405Y666D01*
X415Y666D02*
X448Y666D01*
X207Y359D02*
X240Y359D01*
X250Y359D02*
X283Y359D01*
X372Y359D02*
X405Y359D01*
X415Y359D02*
X448Y359D01*
X207Y358D02*
X238Y358D01*
X253Y358D02*
X283Y358D01*
X372Y358D02*
X402Y358D01*
X417Y358D02*
X448Y358D01*
X207Y357D02*
X236Y357D01*
X255Y357D02*
X283Y357D01*
X372Y357D02*
X400Y357D01*
X419Y357D02*
X448Y357D01*
X207Y356D02*
X234Y356D01*
X256Y356D02*
X283Y356D01*
X372Y356D02*
X399Y356D01*
X421Y356D02*
X448Y356D01*
X207Y355D02*
X233Y355D01*
X257Y355D02*
X283Y355D01*
X372Y355D02*
X398Y355D01*
X422Y355D02*
X448Y355D01*
X207Y354D02*
X232Y354D01*
X258Y354D02*
X283Y354D01*
X372Y354D02*
X397Y354D01*
X423Y354D02*
X448Y354D01*
X207Y353D02*
X231Y353D01*
X259Y353D02*
X283Y353D01*
X372Y353D02*
X396Y353D01*
X424Y353D02*
X448Y353D01*
X207Y352D02*
X231Y352D01*
X260Y352D02*
X283Y352D01*
X372Y352D02*
X395Y352D01*
X424Y352D02*
X448Y352D01*
X207Y351D02*
X230Y351D01*
X260Y351D02*
X283Y351D01*
X372Y351D02*
X395Y351D01*
X425Y351D02*
X448Y351D01*
X207Y350D02*
X230Y350D01*
X261Y350D02*
X283Y350D01*
X372Y350D02*
X394Y350D01*
X425Y350D02*
X448Y350D01*
X207Y349D02*
X229Y349D01*
X261Y349D02*
X283Y349D01*
X372Y349D02*
X394Y349D01*
X426Y349D02*
X448Y349D01*
X207Y348D02*
X229Y348D01*
X262Y348D02*
X283Y348D01*
X372Y348D02*
X393Y348D01*
X426Y348D02*
X448Y348D01*
X207Y347D02*
X229Y347D01*
X262Y347D02*
X283Y347D01*
X372Y347D02*
X393Y347D01*
X427Y347D02*
X448Y347D01*
X207Y346D02*
X228Y346D01*
X262Y346D02*
X283Y346D01*
X372Y346D02*
X393Y346D01*
X427Y346D02*
X448Y346D01*
X207Y345D02*
X228Y345D01*
X262Y345D02*
X283Y345D01*
X372Y345D02*
X393Y345D01*
X427Y345D02*
X448Y345D01*
X207Y344D02*
X228Y344D01*
X262Y344D02*
X283Y344D01*
X372Y344D02*
X393Y344D01*
X427Y344D02*
X448Y344D01*
X207Y343D02*
X228Y343D01*
X263Y343D02*
X283Y343D01*
X372Y343D02*
X393Y343D01*
X427Y343D02*
X448Y343D01*
X207Y342D02*
X228Y342D01*
X263Y342D02*
X283Y342D01*
X372Y342D02*
X393Y342D01*
X427Y342D02*
X448Y342D01*
X207Y341D02*
X228Y341D01*
X262Y341D02*
X283Y341D01*
X372Y341D02*
X393Y341D01*
X427Y341D02*
X448Y341D01*
X207Y340D02*
X228Y340D01*
X262Y340D02*
X283Y340D01*
X372Y340D02*
X393Y340D01*
X427Y340D02*
X448Y340D01*
X207Y339D02*
X228Y339D01*
X262Y339D02*
X283Y339D01*
X372Y339D02*
X393Y339D01*
X427Y339D02*
X448Y339D01*
X207Y338D02*
X229Y338D01*
X262Y338D02*
X283Y338D01*
X372Y338D02*
X393Y338D01*
X426Y338D02*
X448Y338D01*
X207Y337D02*
X229Y337D01*
X262Y337D02*
X283Y337D01*
X372Y337D02*
X394Y337D01*
X426Y337D02*
X448Y337D01*
X207Y336D02*
X229Y336D01*
X261Y336D02*
X283Y336D01*
X372Y336D02*
X394Y336D01*
X426Y336D02*
X448Y336D01*
X207Y335D02*
X230Y335D01*
X261Y335D02*
X283Y335D01*
X372Y335D02*
X394Y335D01*
X425Y335D02*
X448Y335D01*
X207Y334D02*
X230Y334D01*
X260Y334D02*
X283Y334D01*
X372Y334D02*
X395Y334D01*
X425Y334D02*
X448Y334D01*
X207Y333D02*
X231Y333D01*
X259Y333D02*
X283Y333D01*
X372Y333D02*
X396Y333D01*
X424Y333D02*
X448Y333D01*
X207Y332D02*
X232Y332D01*
X259Y332D02*
X283Y332D01*
X372Y332D02*
X396Y332D01*
X423Y332D02*
X448Y332D01*
X207Y331D02*
X233Y331D01*
X258Y331D02*
X283Y331D01*
X372Y331D02*
X397Y331D01*
X422Y331D02*
X448Y331D01*
X207Y330D02*
X234Y330D01*
X257Y330D02*
X283Y330D01*
X372Y330D02*
X398Y330D01*
X421Y330D02*
X448Y330D01*
X207Y329D02*
X235Y329D01*
X255Y329D02*
X283Y329D01*
X372Y329D02*
X400Y329D01*
X420Y329D02*
X448Y329D01*
X207Y328D02*
X237Y328D01*
X254Y328D02*
X283Y328D01*
X372Y328D02*
X401Y328D01*
X418Y328D02*
X448Y328D01*
X207Y327D02*
X239Y327D01*
X252Y327D02*
X283Y327D01*
X372Y327D02*
X403Y327D01*
X416Y327D02*
X448Y327D01*
X207Y326D02*
X241Y326D01*
X250Y326D02*
X283Y326D01*
X372Y326D02*
X405Y326D01*
X414Y326D02*
X448Y326D01*
D02*
G04 End of Copper1*
M02*