G04 MADE WITH FRITZING*
G04 WWW.FRITZING.ORG*
G04 DOUBLE SIDED*
G04 HOLES PLATED*
G04 CONTOUR ON CENTER OF CONTOUR VECTOR*
%ASAXBY*%
%FSLAX23Y23*%
%MOIN*%
%OFA0B0*%
%SFA1.0B1.0*%
%ADD10C,0.060000*%
%ADD11C,0.074000*%
%ADD12C,0.079370*%
%ADD13C,0.075000*%
%ADD14R,0.060028X0.060014*%
%ADD15R,0.060028X0.060000*%
%ADD16R,0.074000X0.074000*%
%ADD17R,0.079370X0.079370*%
%ADD18C,0.024000*%
%LNCOPPER0*%
G90*
G70*
G54D10*
X2691Y186D03*
X2591Y186D03*
X2492Y186D03*
X2392Y186D03*
X2292Y186D03*
X2193Y186D03*
X2093Y186D03*
X1994Y186D03*
X1894Y186D03*
X1795Y186D03*
X1695Y186D03*
X1595Y186D03*
X1496Y186D03*
X1396Y186D03*
X1297Y186D03*
X1297Y1080D03*
X1396Y1080D03*
X1496Y1080D03*
X1595Y1080D03*
X1695Y1080D03*
X1795Y1080D03*
X1894Y1080D03*
X1994Y1080D03*
X2093Y1080D03*
X2193Y1080D03*
X2292Y1080D03*
X2392Y1080D03*
X2492Y1080D03*
X2591Y1080D03*
X2691Y1080D03*
G54D11*
X292Y458D03*
X548Y458D03*
X292Y280D03*
X548Y280D03*
X2492Y1480D03*
X2592Y1480D03*
X2692Y1480D03*
G54D12*
X2092Y1480D03*
X2192Y1480D03*
G54D13*
X1192Y1480D03*
X792Y1480D03*
X1392Y1480D03*
X1792Y1480D03*
G54D14*
X2591Y186D03*
X2193Y186D03*
G54D15*
X1894Y1080D03*
X2591Y1080D03*
G54D16*
X2492Y1480D03*
G54D17*
X2092Y1480D03*
G54D18*
X1192Y480D02*
X892Y981D01*
D02*
X1292Y199D02*
X1192Y480D01*
D02*
X892Y981D02*
X1153Y1209D01*
D02*
X1153Y1209D02*
X1596Y1237D01*
X1596Y1237D02*
X1781Y1466D01*
D02*
X2191Y1460D02*
X2191Y1378D01*
D02*
X2191Y1378D02*
X1857Y1203D01*
D02*
X1857Y1203D02*
X1801Y1093D01*
D02*
X2194Y90D02*
X987Y87D01*
D02*
X987Y87D02*
X791Y1080D01*
D02*
X791Y1080D02*
X1377Y1470D01*
D02*
X2193Y172D02*
X2194Y90D01*
D02*
X2592Y1460D02*
X2591Y1094D01*
G04 End of Copper0*
M02*