; NON-PLATED HOLES START AT T1
; THROUGH (PLATED) HOLES START AT T100
M48
INCH
T1C0.086614
T100C0.028000
T101C0.035000
T102C0.039370
T103C0.040000
%
T1
X000915Y000800
X029915Y015800
X029915Y000800
X000915Y015800
T100
X018941Y010800
X019937Y010800
X019937Y001862
X018941Y001862
X012967Y001862
X026907Y001862
X026907Y010800
X012967Y010800
X024915Y001862
X020932Y001862
X014958Y001862
X024915Y010800
X014958Y010800
X020932Y010800
X023920Y001862
X021928Y010800
X016949Y010800
X016949Y001862
X023920Y010800
X021928Y001862
X017945Y010800
X017945Y001862
X025911Y010800
X025911Y001862
X015954Y001862
X013962Y010800
X022924Y010800
X013962Y001862
X015954Y010800
X022924Y001862
T101
X011915Y014800
X007915Y014800
X017915Y014800
X013915Y014800
T102
X021915Y014800
X020915Y014800
T103
X025915Y014800
X026915Y014800
X005475Y002800
X002915Y002800
X005475Y004580
X002915Y004580
X024915Y014800
T00
M30
